<?xml version="1.0" encoding="UTF-8" standalone="no"?>
<!-- Created with Inkscape (http://www.inkscape.org/) -->

<svg
   version="1.1"
   id="svg182"
   width="1000"
   height="983.56921"
   viewBox="0 0 1000 983.56921"
   sodipodi:docname="Crumbl Cookies - no circle, stacked.svg"
   xml:space="preserve"
   inkscape:version="1.2 (dc2aedaf03, 2022-05-15)"
   xmlns:inkscape="http://www.inkscape.org/namespaces/inkscape"
   xmlns:sodipodi="http://sodipodi.sourceforge.net/DTD/sodipodi-0.dtd"
   xmlns:xlink="http://www.w3.org/1999/xlink"
   xmlns="http://www.w3.org/2000/svg"
   xmlns:svg="http://www.w3.org/2000/svg"><defs
     id="defs186"><polygon
       id="path-1"
       points="0.69422624,0.876 18.01198,0.876 18.01198,6.7103001 0.69422624,6.7103001 " /><polygon
       id="path-3"
       points="0,0.0106 12.4008,0.0106 12.4008,22.3066 0,22.3066 " /><polygon
       id="path-5"
       points="0.2746,0.010151465 10.218,0.010151465 10.218,9.9602 0.2746,9.9602 " /><mask
       id="mask-6"
       fill="#ffffff"><use
         xlink:href="#path-5"
         id="use360" /></mask><mask
       id="mask-2"
       fill="#ffffff"><use
         xlink:href="#path-1"
         id="use325" /></mask><mask
       id="mask-4"
       fill="#ffffff"><use
         xlink:href="#path-3"
         id="use333" /></mask></defs><sodipodi:namedview
     id="namedview184"
     pagecolor="#ffffff"
     bordercolor="#999999"
     borderopacity="1"
     inkscape:showpageshadow="0"
     inkscape:pageopacity="0"
     inkscape:pagecheckerboard="0"
     inkscape:deskcolor="#d1d1d1"
     showgrid="false"
     inkscape:zoom="0.14442656"
     inkscape:cx="349.65868"
     inkscape:cy="751.24686"
     inkscape:current-layer="g188"
     showguides="true" /><g
     inkscape:groupmode="layer"
     inkscape:label="Image"
     id="g188"
     transform="translate(-1437.5931,-1390.4199)"><g
       id="g1141"
       transform="matrix(11.700802,0,0,11.700802,1675.2735,1390.4199)"
       style="opacity:1"><path
         id="Path_990"
         data-name="Path 990"
         d="m 42.771472,13.074861 a 1.760005,1.7575029 0 0 1 -1.162631,-1.663427 1.9270128,1.9242733 0 0 1 0.0364,-0.410511 v -0.02138 a 1.2953808,1.2935392 0 0 1 0.09207,-0.273675 3.1752888,3.1707747 0 0 0 -0.51387,-3.611219 L 41.195611,7.064716 A 13.11011,13.091472 0 0 0 37.474328,4.4049416 l -0.06852,-0.0449 -0.107056,-0.053452 -0.158444,-0.074833 -0.122044,-0.06628 -0.07494,-0.036347 -0.08564,-0.034209 A 2.8155798,2.811577 0 0 0 36.555785,3.9858777 c -0.04282,-0.017105 -0.09635,-0.036347 -0.158443,-0.05559 l -0.07494,-0.029933 -0.22696,-0.085523 -0.145596,-0.051314 v 0 a 2.8262854,2.8222674 0 0 0 -0.293333,-0.096214 l -0.130609,-0.038485 h -0.03212 l -0.102774,-0.03421 h -0.0364 c -0.05353,-0.017105 -0.124185,-0.038486 -0.214113,-0.057728 l -0.346862,-0.087661 -0.267641,-0.087661 h -0.167007 -0.01927 c -0.107057,-0.023519 -0.214113,-0.0449 -0.325451,-0.064142 l -0.143452,-0.02352 h -0.02355 c -0.143456,-0.023519 -0.299758,-0.049176 -0.471048,-0.066281 -0.0471,0 -0.104915,-0.017105 -0.167008,-0.021381 l -0.2291,-0.019243 h -0.05781 l -0.119903,-0.014967 h -0.119903 -0.126327 c -0.263358,-0.019243 -0.511729,-0.019243 -0.732265,-0.019243 -0.370414,0 -0.749394,0.017105 -1.130514,0.053452 A 12.793224,12.775036 0 0 0 27.556636,1.1764387 13.022324,13.003811 0 0 0 13.639321,3.1563021 C 13.425209,3.1434736 13.211096,3.1327832 12.986278,3.1327832 A 13.116534,13.097887 0 0 0 7.8882586,28.242411 v 7.806135 H 6.7534622 a 3.1688654,3.1643605 0 1 0 0,6.326583 h 4.9716928 a 3.1688654,3.1643605 0 0 0 -0.295475,1.421824 3.1024906,3.0980799 0 0 0 0.999905,2.204362 14.559652,14.538954 0 0 0 15.330458,2.922757 14.330552,14.310179 0 0 0 4.596996,-2.933448 3.1410308,3.1365654 0 0 0 0.695865,-3.615495 h 5.016657 a 3.1688654,3.1643605 0 1 0 0,-6.326583 h -1.134797 v -7.769788 l 0.229101,-0.05773 0.128467,-0.128285 c 0.261218,-0.119733 0.501024,-0.245879 0.72156,-0.361336 l 0.130608,-0.07483 c 0.188419,-0.100489 0.400391,-0.213808 0.620927,-0.350645 l 0.03854,-0.02566 a 2.5693504,2.5656977 0 0 0 0.244088,-0.16677 2.102585,2.0995959 0 0 0 0.286911,-0.196704 c 0.06423,-0.04276 0.154161,-0.102628 0.252653,-0.179599 0.09849,-0.07697 0.141314,-0.109042 0.181995,-0.141113 l 0.0364,-0.02352 0.06638,-0.05131 0.117762,-0.09194 c 0.107056,-0.08125 0.224818,-0.175323 0.349004,-0.282227 0.08136,-0.06842 0.186278,-0.15608 0.297616,-0.262984 l 0.124185,-0.11118 0.05567,-0.05131 0.149878,-0.126147 0.09849,-0.121871 c 0.160585,-0.151804 0.297617,-0.301469 0.413237,-0.427616 l 0.115621,-0.126147 0.01927,-0.02138 0.03854,-0.03849 0.338298,-0.395545 0.316887,-0.427616 c 0.03854,-0.0449 0.07708,-0.0898 0.111338,-0.132562 a 2.9847287,2.9804855 0 0 0 0.19056,-0.269398 l 0.01499,-0.0171 0.02998,-0.04276 a 2.2717339,2.2685044 0 0 0 0.175572,-0.280089 q 0.02998,-0.04918 0.05781,-0.102628 l 0.01285,-0.01924 c 0.0728,-0.111181 0.162725,-0.248018 0.252652,-0.408374 0.04282,-0.0727 0.100633,-0.173185 0.158444,-0.292917 0.09849,-0.175323 0.192701,-0.363474 0.295475,-0.581558 l 0.01927,-0.04276 0.01927,-0.04704 0.01499,-0.03207 0.0471,-0.109042 c 0.0835,-0.183875 0.169149,-0.36775 0.252653,-0.564453 l 0.03212,-0.07483 0.05353,-0.158218 a 12.992348,12.973878 0 0 0 0.87572,-4.673846 v -0.07697 a 3.1495953,3.1451177 0 0 0 -2.14969,-3.036076 z"
         fill="#ffffff"
         style="stroke-width:2.1396" /><g
         id="g2863"
         transform="translate(0.85715397,-0.11117051)"><path
           id="Fill-1"
           style="fill:#000000;fill-opacity:1;fill-rule:evenodd;stroke:none;stroke-width:1"
           d="m 25.976562,31.066406 c -0.442999,0 -0.844765,0.178751 -1.134765,0.46875 -0.29,0.29 -0.470703,0.690813 -0.470703,1.132813 0,0.441999 0.180703,0.842813 0.470703,1.132812 0.29,0.29 0.691766,0.46875 1.134765,0.46875 0.443,0 0.842813,-0.17975 1.132813,-0.46875 0.29,-0.289999 0.470703,-0.691813 0.470703,-1.132812 0,-0.442 -0.180703,-0.842813 -0.470703,-1.132813 l -0.0078,-0.0078 c -0.288999,-0.286 -0.687,-0.460938 -1.125,-0.460938 z" /><path
           id="Fill-5"
           style="fill:#000000;fill-opacity:1;fill-rule:evenodd;stroke:none;stroke-width:1"
           d="m 17.164062,31.066406 c -0.441999,0 -0.844765,0.178751 -1.134765,0.46875 -0.29,0.29 -0.46875,0.690813 -0.46875,1.132813 0,0.440999 0.17875,0.842813 0.46875,1.132812 0.29,0.289 0.692766,0.46875 1.134765,0.46875 0.443,0 0.844766,-0.17875 1.134766,-0.46875 0.29,-0.289999 0.46875,-0.690813 0.46875,-1.132812 0,-0.442 -0.17975,-0.842813 -0.46875,-1.132813 l -0.0098,-0.0078 c -0.288999,-0.286 -0.686,-0.460938 -1.125,-0.460938 z" /><path
           id="Fill-9"
           style="fill:#000000;fill-opacity:1;fill-rule:evenodd;stroke:none;stroke-width:1"
           d="m 21.316406,2 c -1.613998,0 -3.154876,0.3457975 -4.546875,0.9667969 -1.233137,0.5494854 -2.346581,1.3172768 -3.292969,2.25 -0.104311,-0.012232 -0.209121,-0.023771 -0.314453,-0.033203 -0.366999,-0.032 -0.701953,-0.048828 -1.001953,-0.048828 -0.02141,0 -0.04136,8.899e-4 -0.0625,0.00195 C 9.0415637,5.1535908 6.2757853,6.3990027 4.2695312,8.40625 2.2505333,10.425248 1,13.210206 1,16.283203 c 0,3.071997 1.2495333,5.858908 3.2695312,7.878906 1.2992476,1.298605 2.917383,2.276195 4.7265626,2.810547 V 38.087891 H 5.921875 c -0.6849993,0 -1.2402344,0.548563 -1.2402344,1.226562 0,0.678999 0.5552351,1.230469 1.2402344,1.230469 h 11.017578 c 0.516125,0.551254 1.129919,1.013191 1.814453,1.353516 0.854999,0.423999 1.812408,0.662109 2.816406,0.662109 1.003999,0 1.960408,-0.23811 2.816407,-0.662109 0.68462,-0.340368 1.298088,-0.80217 1.814453,-1.353516 H 37.21875 c 0.685999,0 1.242188,-0.55147 1.242188,-1.230469 0,-0.677999 -0.556189,-1.226562 -1.242188,-1.226562 H 34.142578 V 26.974609 c 0.05812,-0.0172 0.116094,-0.03461 0.173828,-0.05273 0.05959,-0.01867 0.118576,-0.03896 0.177735,-0.05859 0.0053,-0.0018 0.01032,-0.0041 0.01563,-0.0059 0.0087,-0.0029 0.01675,-0.0069 0.02539,-0.0098 0.0078,-0.0026 0.0156,-0.0052 0.02344,-0.0078 0.0658,-0.02229 0.13202,-0.04293 0.197265,-0.06641 0.08708,-0.03141 0.17368,-0.06415 0.259766,-0.09766 0.08624,-0.03351 0.172622,-0.06794 0.257813,-0.103515 0.02099,-0.0088 0.04157,-0.01844 0.0625,-0.02734 0.0032,-0.0014 0.0065,-0.0025 0.0098,-0.0039 0.03114,-0.01328 0.06276,-0.0255 0.09375,-0.03906 0.02945,-0.01286 0.05857,-0.02595 0.08789,-0.03906 0.01913,-0.0086 0.03756,-0.01867 0.05664,-0.02734 0.184925,-0.08394 0.367472,-0.172058 0.546875,-0.265625 0.0077,-0.004 0.0157,-0.0077 0.02344,-0.01172 0.03791,-0.01988 0.07563,-0.04024 0.113281,-0.06055 0.02483,-0.0134 0.0495,-0.02744 0.07422,-0.04102 0.05794,-0.03182 0.116519,-0.06289 0.173828,-0.0957 0.07705,-0.04405 0.152633,-0.09091 0.228516,-0.136719 0.04884,-0.02954 0.09813,-0.05763 0.146484,-0.08789 0.01593,-0.01 0.031,-0.02122 0.04687,-0.03125 0.0064,-0.0041 0.01313,-0.0076 0.01953,-0.01172 0.0072,-0.0045 0.01433,-0.0091 0.02148,-0.01367 0.02029,-0.01294 0.04035,-0.026 0.06055,-0.03906 0.05633,-0.0365 0.112337,-0.07385 0.167969,-0.111328 0.07706,-0.05184 0.152846,-0.104511 0.228516,-0.158203 0.05828,-0.04139 0.116385,-0.08252 0.173828,-0.125 0.01718,-0.01269 0.03368,-0.02628 0.05078,-0.03906 0.07417,-0.0555 0.147973,-0.110684 0.220703,-0.167969 0.04917,-0.03869 0.09799,-0.07769 0.146485,-0.117187 0.08769,-0.07147 0.174309,-0.144708 0.259765,-0.21875 0.0035,-0.003 0.0063,-0.0067 0.0098,-0.0098 0.0038,-0.0033 0.0079,-0.0064 0.01172,-0.0098 l 0.002,-0.002 c 0.0018,-0.0015 0.0041,-0.0024 0.0059,-0.0039 0.06735,-0.05877 0.133297,-0.119349 0.199219,-0.179687 0.04388,-0.04017 0.08763,-0.08024 0.130859,-0.121094 0.01843,-0.01741 0.03833,-0.03325 0.05664,-0.05078 l 0.01563,-0.01758 c 0.0093,-0.009 0.01804,-0.01834 0.02734,-0.02734 l 0.01758,-0.01758 c 0.05105,-0.04965 0.102256,-0.09783 0.152344,-0.148438 0.06542,-0.06611 0.129605,-0.133451 0.193359,-0.201172 l 0.002,-0.002 c 0.06255,-0.06647 0.124635,-0.13318 0.185547,-0.201171 0.07094,-0.07914 0.14032,-0.159103 0.208984,-0.240235 0.01677,-0.01983 0.03219,-0.0406 0.04883,-0.06055 0.05422,-0.06497 0.107418,-0.131068 0.160156,-0.197265 0.03782,-0.04751 0.07623,-0.09444 0.113281,-0.142579 0.0721,-0.09358 0.143772,-0.187334 0.212891,-0.283203 0.03895,-0.054 0.07724,-0.109347 0.115234,-0.164062 0.0426,-0.06139 0.08558,-0.123279 0.126953,-0.185547 0.0099,-0.01488 0.01947,-0.02999 0.0293,-0.04492 0.0021,-0.0033 0.0038,-0.0065 0.0059,-0.0098 1.152815,-1.754991 1.822266,-3.850328 1.822266,-6.099609 l -0.0039,-0.09375 C 42.150719,15.671454 41.829546,15.181 41.310547,15 c -0.728999,-0.254 -1.354922,-0.731563 -1.794922,-1.351562 -0.427,-0.601 -0.677734,-1.342533 -0.677734,-2.144532 0,-0.295999 0.03184,-0.574078 0.08984,-0.830078 0.059,-0.255 0.141094,-0.499563 0.246094,-0.7265624 0.251,-0.4569995 0.188687,-1.0405472 -0.195312,-1.4355468 -0.96099,-0.9870628 -2.106562,-1.7953633 -3.376954,-2.3730469 -0.01408,-0.00641 -0.02886,-0.011229 -0.04297,-0.017578 -0.08001,-0.035981 -0.15924,-0.075257 -0.240235,-0.109375 -0.06622,-0.027941 -0.134336,-0.051424 -0.201171,-0.078125 -0.04424,-0.017722 -0.08835,-0.03557 -0.132813,-0.052734 -0.122692,-0.04721 -0.246445,-0.091786 -0.371094,-0.1347656 -0.06884,-0.02383 -0.137712,-0.047832 -0.207031,-0.070313 -0.04431,-0.014315 -0.08827,-0.029193 -0.132812,-0.042969 -0.02708,-0.010141 -0.05387,-0.020927 -0.08203,-0.029297 -0.314397,-0.093453 -0.638448,-0.174853 -0.96875,-0.2421875 -0.0032,-6.647e-4 -0.0065,-0.00129 -0.0098,-0.00195 -0.177803,-0.036079 -0.357083,-0.068255 -0.539063,-0.095703 -0.02268,-0.00348 -0.04564,-0.00643 -0.06836,-0.00977 -0.144544,-0.020995 -0.290232,-0.039132 -0.435547,-0.054687 -0.05704,-0.0061 -0.114599,-0.012349 -0.171875,-0.017578 -0.116985,-0.010748 -0.234242,-0.018286 -0.351563,-0.025391 -0.01045,-6.254e-4 -0.02079,-0.00136 -0.03125,-0.00195 -0.01048,-5.952e-4 -0.02077,-0.00334 -0.03125,-0.00391 -0.0039,-2.101e-4 -0.0078,2.061e-4 -0.01172,0 -0.0195,-0.00103 -0.03907,-0.00102 -0.05859,-0.00195 -0.177455,-0.00862 -0.35536,-0.013672 -0.533203,-0.013672 -0.02144,0 -0.04328,8.899e-4 -0.06445,0.00195 -0.580215,0.00332 -1.150236,0.051353 -1.707032,0.140625 C 28.265356,4.3333333 27.153085,3.5532085 25.919922,2.9941406 24.508923,2.3561413 22.950405,2 21.316406,2 Z m 0,2.4570312 c 1.281999,10e-8 2.492173,0.2746255 3.576172,0.765625 0.54021,0.2441194 1.049055,0.5446475 1.523438,0.890625 -0.430347,0.1934055 -0.84608,0.4119538 -1.246094,0.65625 -1.750998,1.068999 -3.183095,2.6027831 -4.121094,4.4257808 -0.223,0.435 -0.427469,0.910876 -0.605469,1.421876 -0.174999,0.499999 -0.312156,0.998281 -0.410156,1.488281 -0.131,0.664999 0.30947,1.311406 0.980469,1.441406 0.671999,0.13 1.322125,-0.305704 1.453125,-0.970703 0.083,-0.416 0.1875,-0.80511 0.3125,-1.16211 0.126,-0.359999 0.287469,-0.730469 0.480469,-1.105468 0.734999,-1.428999 1.849985,-2.6270323 3.208984,-3.4570315 1.308999,-0.7979992 2.85372,-1.2597656 4.511719,-1.2597656 0.133375,0 0.264793,0.00394 0.396484,0.00977 0.01684,7.5e-4 0.03397,0.00111 0.05078,0.00195 0.01758,8.828e-4 0.03521,0.00292 0.05273,0.00391 0.277819,0.015641 0.552524,0.043061 0.822265,0.083984 0.0033,4.934e-4 0.0085,0.00146 0.01172,0.00195 0.103991,0.015923 0.205944,0.035131 0.308594,0.054687 0.02531,0.00482 0.05096,0.00863 0.07617,0.013672 0.0312,0.00632 0.06259,0.012857 0.09375,0.019531 0.06885,0.014558 0.136884,0.030702 0.205078,0.046875 0.07283,0.017373 0.144886,0.035593 0.216797,0.054687 0.08593,0.023034 0.17239,0.04647 0.257812,0.072266 0.04816,0.014381 0.09682,0.027819 0.144532,0.042969 0.0798,0.025382 0.159588,0.052468 0.238281,0.080078 0.06347,0.022201 0.126849,0.044803 0.189453,0.068359 0.0789,0.029803 0.156696,0.061725 0.234375,0.09375 0.05752,0.023607 0.115153,0.047518 0.171875,0.072266 0.797625,0.348499 1.533268,0.812884 2.183594,1.3730469 -0.046,0.1489998 -0.08609,0.2982189 -0.121094,0.4492192 -0.102,0.450999 -0.158203,0.910141 -0.158203,1.36914 0,1.320999 0.420766,2.546736 1.134765,3.552735 0.556,0.782999 1.290532,1.431766 2.144532,1.884765 -0.04575,0.617625 -0.156811,1.216423 -0.324219,1.791016 -0.0017,0.0059 -0.0041,0.01167 -0.0059,0.01758 -0.04653,0.15844 -0.09915,0.314254 -0.154297,0.46875 -0.01535,0.04286 -0.02892,0.08636 -0.04492,0.128906 -0.05233,0.139591 -0.108779,0.276077 -0.167969,0.41211 -0.02075,0.04759 -0.04093,0.09544 -0.0625,0.142578 -0.05964,0.130568 -0.123639,0.25976 -0.189453,0.386718 -0.0279,0.05374 -0.05696,0.107084 -0.08594,0.160157 -0.06189,0.113489 -0.126621,0.225626 -0.193359,0.335937 -0.03732,0.06163 -0.07449,0.122975 -0.113281,0.183594 -0.06993,0.109329 -0.142169,0.216394 -0.216797,0.322266 -0.0523,0.07422 -0.105625,0.148218 -0.160156,0.220703 -0.04852,0.06445 -0.09625,0.128377 -0.146485,0.191406 -0.0086,0.01079 -0.0187,0.0205 -0.02734,0.03125 -0.04932,0.06133 -0.09946,0.121703 -0.150391,0.181641 -0.04865,0.05723 -0.09641,0.115948 -0.146485,0.171875 -0.008,0.0089 -0.01735,0.01648 -0.02539,0.02539 -0.05863,0.06495 -0.119168,0.128273 -0.179688,0.191407 -0.02946,0.03072 -0.05799,0.06346 -0.08789,0.09375 l -0.002,0.002 -0.002,0.002 c -0.0045,0.0046 -0.0091,0.0091 -0.01367,0.01367 -0.05187,0.05224 -0.105045,0.10339 -0.158204,0.154296 -0.002,0.0019 -0.0038,0.0039 -0.0059,0.0059 -0.005,0.0048 -0.01062,0.0089 -0.01563,0.01367 -0.135067,0.128547 -0.274755,0.253353 -0.417969,0.373047 -0.02447,0.02044 -0.04953,0.04037 -0.07422,0.06055 -0.137232,0.112138 -0.275816,0.220521 -0.419922,0.324218 -0.01024,0.0074 -0.02097,0.01416 -0.03125,0.02148 h -0.002 c -0.154762,0.110298 -0.312463,0.218216 -0.47461,0.318359 h -0.002 l -0.002,0.002 c -0.160782,0.09919 -0.324615,0.192505 -0.492188,0.28125 -0.03538,0.01873 -0.07174,0.03644 -0.107421,0.05469 -0.138096,0.07069 -0.279588,0.137805 -0.421875,0.201171 -0.03441,0.0153 -0.06886,0.03006 -0.103516,0.04492 -0.175611,0.07546 -0.351806,0.146982 -0.533203,0.210938 h -0.002 c -0.0091,0.0032 -0.01821,0.0066 -0.02734,0.0098 -0.172369,0.06008 -0.348243,0.112809 -0.525391,0.162109 -0.0274,0.0076 -0.05452,0.01608 -0.08203,0.02344 -0.184518,0.04938 -0.371384,0.09553 -0.560547,0.132813 -0.07147,0.01309 -0.140414,0.03198 -0.207031,0.05664 -0.01486,0.0055 -0.03037,0.0096 -0.04492,0.01562 -0.0013,5.56e-4 -0.0026,0.0014 -0.0039,0.002 -0.0014,5.68e-4 -0.0025,0.0014 -0.0039,0.002 -0.06786,0.0287 -0.132344,0.06381 -0.19336,0.103515 -0.0039,0.0025 -0.0098,0.0053 -0.01367,0.0078 -0.06623,0.04431 -0.12778,0.09499 -0.183593,0.150391 -0.02808,0.0278 -0.05478,0.05559 -0.08008,0.08594 v 0.002 c -0.06988,0.08404 -0.128247,0.178726 -0.173828,0.279297 -0.0034,0.0074 -0.0085,0.014 -0.01172,0.02148 v 0.002 c -0.0014,0.0032 -0.0026,0.0065 -0.0039,0.0098 -0.01352,0.03244 -0.02641,0.066 -0.03711,0.09961 l -0.002,0.002 c -0.01209,0.03849 -0.02103,0.07913 -0.0293,0.11914 -0.0077,0.03707 -0.01337,0.07531 -0.01758,0.113281 -0.0031,0.02809 -0.0047,0.05732 -0.0059,0.08594 -5.32e-4,0.01369 -0.0019,0.02724 -0.002,0.04102 -1.6e-5,0.0026 0,0.0052 0,0.0078 v 3.908203 c -1.29221,-0.310683 -2.647616,-0.565569 -4.052734,-0.753906 -1.944998,-0.26 -3.969065,-0.398437 -6.039063,-0.398437 -2.068997,-1e-6 -4.095064,0.138437 -6.039062,0.398437 -1.405062,0.188329 -2.76057,0.441229 -4.052734,0.751953 v -2.515625 c 0.22567,0.01362 0.452566,0.02344 0.68164,0.02344 0.685,0 1.240235,-0.550517 1.240235,-1.228516 0,-0.678999 -0.555235,-1.228516 -1.240235,-1.228516 -2.3979974,0 -4.5667201,-0.972017 -6.1367185,-2.541015 -1.5699984,-1.568999 -2.5410156,-3.744393 -2.5410156,-6.150391 0,-2.406997 0.9710172,-4.580392 2.5410156,-6.150391 1.5699984,-1.568998 3.7387211,-2.5410152 6.1367185,-2.5410152 0.299,0 0.559297,0.010297 0.779297,0.029297 0.235007,0.020709 0.468754,0.05163 0.699219,0.091797 0.002,3.506e-4 0.0038,0.0016 0.0059,0.00195 0.429816,0.1015684 0.900573,-0.027457 1.214844,-0.3769532 0.810999,-0.9039991 1.807735,-1.6357661 2.927734,-2.1347656 1.072999,-0.4789995 2.268299,-0.7460938 3.529297,-0.7460938 z m 0.253906,26.7734378 c 1.993999,0 3.906987,0.129094 5.708985,0.371093 1.537737,0.205142 3.002635,0.494527 4.382812,0.851563 v 5.634766 h -6.029297 c -0.431248,0 -0.810758,0.218147 -1.033203,0.548828 -0.353688,0.448189 -0.804981,0.817975 -1.318359,1.072265 -0.508999,0.252 -1.088938,0.394532 -1.710938,0.394532 -0.621999,0 -1.204891,-0.142532 -1.71289,-0.394532 -0.517262,-0.255735 -0.967741,-0.628429 -1.322266,-1.080078 -0.223095,-0.32666 -0.599219,-0.541015 -1.027344,-0.541015 h -6.029296 v -5.634766 c 1.379579,-0.357187 2.844745,-0.646487 4.382812,-0.851563 1.801998,-0.241999 3.715986,-0.371093 5.708984,-0.371093 z" /><path
           d="m 28.4943,42.9181 c 0.495,-0.466 1.279,-0.446 1.75,0.043 0.471,0.49 0.451,1.267 -0.044,1.733 -1.145,1.08 -2.496,1.95 -3.988,2.542 -1.442,0.573 -3.009,0.888 -4.642,0.888 -1.634,0 -3.201,-0.315 -4.643,-0.888 -1.492,-0.592 -2.842,-1.462 -3.988,-2.542 -0.495,-0.466 -0.514,-1.243 -0.044,-1.733 0.472,-0.489 1.255,-0.509 1.75,-0.043 0.922,0.87 2.007,1.569 3.203,2.044 1.145,0.455 2.401,0.705 3.722,0.705 1.32,0 2.576,-0.25 3.721,-0.705 1.196,-0.476 2.281,-1.174 3.203,-2.044"
           id="Fill-25"
           fill="#231F20"
           style="fill:#000000;fill-opacity:1;fill-rule:evenodd;stroke:none;stroke-width:1" /><path
           d="m 29.3796,13.2853 c -0.422,-0.534 -0.332,-1.312 0.204,-1.734 0.534,-0.423 1.312,-0.332 1.734,0.203 l 0.713,0.9 c 0.423,0.536 0.332,1.314 -0.203,1.736 -0.535,0.423 -1.313,0.332 -1.735,-0.204 z"
           id="Fill-43"
           fill="#231F20"
           style="fill:#000000;fill-opacity:1;fill-rule:evenodd;stroke:none;stroke-width:1" /><path
           d="m 26.2829,18.8419 c -0.583,-0.358 -0.766,-1.123 -0.407,-1.707 0.358,-0.583 1.123,-0.766 1.706,-0.407 l 0.979,0.602 c 0.583,0.359 0.765,1.123 0.407,1.706 -0.359,0.584 -1.123,0.766 -1.706,0.408 z"
           id="Fill-45"
           fill="#231F20"
           style="fill:#000000;fill-opacity:1;fill-rule:evenodd;stroke:none;stroke-width:1" /><path
           d="m 34.9396,19.838 c -0.404,0.551 -1.179,0.67 -1.73,0.267 -0.552,-0.405 -0.671,-1.179 -0.267,-1.731 l 0.682,-0.926 c 0.403,-0.55 1.178,-0.67 1.73,-0.266 0.551,0.404 0.67,1.179 0.266,1.73 z"
           id="Fill-47"
           fill="#231F20"
           style="fill:#000000;fill-opacity:1;fill-rule:evenodd;stroke:none;stroke-width:1" /></g></g><g
       id="g2881"
       transform="matrix(9.3604474,0,0,9.3604474,947.2339,1959.7519)"
       style="fill:#000000;fill-opacity:1"><path
         d="m 67.2243,11.7433 c 0.826,0.744 0.887,2.012 0.135,2.829 -0.752,0.818 -2.032,0.878 -2.858,0.134 -0.439,-0.396 -0.947,-0.711 -1.498,-0.922 -0.525,-0.201 -1.108,-0.312 -1.728,-0.312 -1.337,0 -2.546,0.541 -3.419,1.415 -0.875,0.874 -1.417,2.091 -1.417,3.441 0,1.35 0.542,2.567 1.417,3.442 0.873,0.873 2.082,1.414 3.419,1.414 0.62,0 1.203,-0.111 1.728,-0.312 0.551,-0.211 1.059,-0.526 1.498,-0.922 0.826,-0.743 2.106,-0.685 2.858,0.134 0.752,0.818 0.691,2.085 -0.135,2.829 -0.798,0.718 -1.734,1.294 -2.765,1.69 -1,0.383 -2.074,0.593 -3.184,0.593 -2.454,0 -4.676,-0.995 -6.285,-2.605 -1.609,-1.608 -2.604,-3.824 -2.604,-6.263 0,-2.44 0.995,-4.655 2.604,-6.263 1.609,-1.61 3.831,-2.606 6.285,-2.606 1.11,0 2.184,0.211 3.184,0.594 1.031,0.395 1.967,0.972 2.765,1.69"
         id="Fill-53"
         fill="#231F20"
         style="fill:#000000;fill-opacity:1;fill-rule:evenodd;stroke:none;stroke-width:1" /><g
         id="g2028"
         style="fill:#000000;fill-opacity:1"><path
           d="m 130.6691,5.1124 c 0,-1.108 0.907,-2.006 2.026,-2.006 1.12,0 2.027,0.898 2.027,2.006 v 19.965 c 0,1.108 -0.907,2.007 -2.027,2.007 -1.119,0 -2.026,-0.899 -2.026,-2.007 z"
           id="Fill-51"
           fill="#231F20"
           style="fill:#000000;fill-opacity:1;fill-rule:evenodd;stroke:none;stroke-width:1" /><path
           d="m 130.9304,22.6857 c -0.546,-0.965 -0.199,-2.187 0.776,-2.728 0.974,-0.541 2.208,-0.196 2.755,0.769 0.427,0.754 1.043,1.381 1.778,1.81 0.707,0.412 1.538,0.648 2.432,0.648 1.336,0 2.545,-0.541 3.419,-1.414 0.874,-0.875 1.416,-2.093 1.416,-3.442 0,-1.35 -0.541,-2.568 -1.416,-3.442 -0.873,-0.874 -2.083,-1.414 -3.419,-1.414 -0.895,0 -1.725,0.236 -2.432,0.649 -0.735,0.428 -1.351,1.054 -1.778,1.809 -0.547,0.965 -1.781,1.31 -2.755,0.768 -0.975,-0.54 -1.322,-1.762 -0.776,-2.728 0.771,-1.362 1.901,-2.504 3.266,-3.299 1.321,-0.77 2.851,-1.212 4.475,-1.212 2.452,0 4.675,0.996 6.285,2.606 1.608,1.607 2.603,3.823 2.603,6.263 0,2.44 -0.995,4.655 -2.603,6.262 -1.609,1.611 -3.833,2.606 -6.285,2.606 -1.624,0 -3.154,-0.442 -4.475,-1.212 -1.365,-0.795 -2.495,-1.937 -3.266,-3.299"
           id="Fill-55"
           fill="#231F20"
           style="fill:#000000;fill-opacity:1;fill-rule:evenodd;stroke:none;stroke-width:1" /></g><path
         id="Fill-57"
         style="fill:#000000;fill-opacity:1;fill-rule:evenodd;stroke:none;stroke-width:1"
         d="m 151.30078,3.1074219 c -1.119,0 -2.02734,0.8968605 -2.02734,2.0058593 v 6.6542968 c 0,0.05535 0.003,0.109839 0.008,0.164063 v 7.089843 c -0.005,0.055 -0.006,0.110016 -0.006,0.166016 0,2.170998 0.88636,4.145173 2.31836,5.576172 1.434,1.432998 3.41266,2.320312 5.59766,2.320312 1.119,0 2.02734,-0.89786 2.02734,-2.005859 0,-1.107999 -0.90834,-2.005859 -2.02734,-2.005859 -1.068,0 -2.03543,-0.431907 -2.73243,-1.128907 -0.69899,-0.697999 -1.13086,-1.67386 -1.13086,-2.755859 0,-0.06313 -0.004,-0.125527 -0.01,-0.1875 v -7.0625 c 0.005,-0.05612 0.01,-0.112594 0.01,-0.169922 V 5.1132812 c 1e-5,-1.1089988 -0.90834,-2.0058593 -2.02734,-2.0058593 z" /><path
         id="Fill-59"
         style="fill:#000000;fill-opacity:1;fill-rule:evenodd;stroke:none;stroke-width:1"
         d="m 79.974609,9.7148438 c -2.201174,0 -4.227302,0.6954192 -5.835937,1.8574222 -0.06707,-0.16037 -0.13855,-0.320106 -0.220703,-0.478516 l -0.123047,-0.244141 c -0.512,-0.9819986 -1.730657,-1.3683272 -2.722656,-0.8613278 -0.991999,0.5059998 -1.383094,1.7133138 -0.871094,2.6953128 l 0.126953,0.234375 c 0.071,0.138 0.123203,0.268578 0.158203,0.392578 L 70.5,13.371094 c 0.032,0.126 0.04492,0.284469 0.04492,0.480468 v 4.476563 6.75 c 0,1.107999 0.908345,2.005859 2.027344,2.005859 1.118999,0 2.027343,-0.89786 2.027343,-2.005859 v -6.75 c 0,-1.349999 0.599408,-2.572079 1.566407,-3.455078 0.968999,-0.882999 2.315595,-1.429688 3.808593,-1.429688 1.118999,0 2.027344,-0.834235 2.027344,-1.865234 0,-1.028999 -0.908345,-1.8632812 -2.027344,-1.8632812 z" /><path
         id="Fill-68"
         style="fill:#000000;fill-opacity:1;fill-rule:evenodd;stroke:none;stroke-width:1"
         d="m 85.759766,9.7597656 c -1.117999,0 -2.025391,0.9008134 -2.025391,2.0078124 v 7.365234 c 0,0.0026 -1e-5,0.0052 0,0.0078 -3.68e-4,0.01572 -0.002,0.03107 -0.002,0.04687 0,2.170998 0.886361,4.145173 2.318359,5.576172 1.432999,1.432998 3.414612,2.320312 5.59961,2.320312 2.207997,0 4.182329,-0.891032 5.611328,-2.332031 1.428998,-1.441998 2.304687,-3.43019 2.304687,-5.617187 0,-0.04617 -0.0047,-0.09133 -0.0078,-0.136719 V 11.76756 c 0,-1.103999 -0.905533,-1.9999999 -2.019532,-1.9999999 -1.114998,0 -2.019531,0.8960009 -2.019531,1.9999999 v 7.230469 c -0.0031,0.04539 -0.0078,0.09055 -0.0078,0.136719 0,1.107999 -0.429813,2.101547 -1.132813,2.810546 -0.688999,0.697 -1.648516,1.125 -2.728515,1.125 -0.0079,0 -0.0156,0.0019 -0.02344,0.002 -1.058671,-0.0063 -2.017106,-0.437028 -2.708984,-1.128907 -0.699,-0.697999 -1.132813,-1.67286 -1.132813,-2.755859 0,-0.0039 2.3e-5,-0.0078 0,-0.01172 3.04e-4,-0.0143 0.002,-0.02859 0.002,-0.04297 v -7.365234 c 0,-1.106999 -0.907344,-2.0078124 -2.027343,-2.0078124 z" /><path
         id="Fill-76"
         style="fill:#000000;fill-opacity:1;fill-rule:evenodd;stroke:none;stroke-width:1"
         d="m 110.08984,9.4589844 c -1.5517,0 -2.99259,0.4806699 -4.18164,1.3007816 -0.53848,-0.9135333 -1.71153,-1.261334 -2.67187,-0.7714848 -0.992,0.5069998 -1.38114,1.7133138 -0.86914,2.6953128 0.132,0.254999 0.23015,0.465484 0.28515,0.646484 0.038,0.131 0.0586,0.293485 0.0586,0.521484 v 11.226563 c 0,1.106999 0.90734,2.005859 2.02734,2.005859 1.119,0 2.02539,-0.89886 2.02539,-2.005859 v -8.261719 c 0,-0.931999 0.37361,-1.772047 0.97461,-2.373047 0.601,-0.598999 1.43156,-0.970703 2.35156,-0.970703 0.92,0 1.75057,0.370704 2.35157,0.970703 0.59214,0.591156 0.9638,1.415517 0.97461,2.332032 -8e-5,0.01373 -0.002,0.02726 -0.002,0.04102 0,0.01386 0.002,0.02722 0.002,0.04102 v 8.220703 c 0,1.107999 0.90639,2.005859 2.02539,2.005859 1.119,0 2.02734,-0.89786 2.02734,-2.005859 v -8.261719 c 0,-0.931999 0.37166,-1.772047 0.97266,-2.373047 0.601,-0.598999 1.43256,-0.970703 2.35156,-0.970703 0.92,0 1.75251,0.370704 2.35351,0.970703 0.59552,0.594525 0.96595,1.424865 0.97266,2.347657 -1.1e-4,0.0085 -0.002,0.01682 -0.002,0.02539 v 8.261719 c 0,1.107999 0.90834,2.005859 2.02734,2.005859 1.119,0 2.02735,-0.89786 2.02735,-2.005859 v -8.261719 c 0,-2.021998 -0.82712,-3.860314 -2.16211,-5.195312 -1.337,-1.336999 -3.1808,-2.1621096 -5.2168,-2.1621096 -2.036,0 -3.8798,0.8270636 -5.2168,2.1640626 -0.046,0.04595 -0.09,0.09349 -0.13476,0.140625 -0.045,-0.04748 -0.0885,-0.09629 -0.13477,-0.142578 -1.337,-1.336999 -3.1808,-2.1621096 -5.2168,-2.1621096 z" /><path
         style="fill:#000000;fill-opacity:1;fill-rule:evenodd;stroke:none;stroke-width:1"
         d="m 65.0787,44.236 c 1.335,0 2.48,-0.485 3.312,-1.335 l -0.902,-0.954 c -0.624,0.711 -1.457,1.041 -2.393,1.041 -1.891,0 -3.175,-1.353 -3.175,-3.313 0,-1.978 1.302,-3.313 3.158,-3.313 1.005,0 1.856,0.381 2.359,0.989 l 0.901,-0.954 c -0.797,-0.816 -1.96,-1.284 -3.26,-1.284 -2.568,0 -4.51,1.891 -4.51,4.562 0,2.671 1.925,4.561 4.51,4.561 z"
         id="path2050" /><path
         id="path2048"
         style="fill:#000000;fill-opacity:1;fill-rule:evenodd;stroke:none;stroke-width:1"
         d="m 78.763672,35.113281 c -2.584998,0 -4.492188,1.873503 -4.492188,4.5625 0,2.687998 1.90719,4.560547 4.492188,4.560547 2.600997,0 4.527344,-1.872549 4.527344,-4.560547 0,-2.688997 -1.926347,-4.5625 -4.527344,-4.5625 z m 0,1.248047 c 1.889998,0 3.15625,1.336455 3.15625,3.314453 0,1.976998 -1.283252,3.3125 -3.15625,3.3125 -1.855998,0 -3.138672,-1.335502 -3.138672,-3.3125 0,-1.977998 1.282674,-3.314453 3.138672,-3.314453 z" /><path
         id="path2044"
         style="fill:#000000;fill-opacity:1;fill-rule:evenodd;stroke:none;stroke-width:1"
         d="m 94.166016,35.113281 c -2.584998,0 -4.492188,1.873503 -4.492188,4.5625 0,2.687998 1.90719,4.560547 4.492188,4.560547 2.600997,0 4.527343,-1.872549 4.527343,-4.560547 0,-2.688997 -1.926346,-4.5625 -4.527343,-4.5625 z m 0,1.248047 c 1.889998,0 3.15625,1.336455 3.15625,3.314453 0,1.976998 -1.283252,3.3125 -3.15625,3.3125 -1.856999,0 -3.138672,-1.335502 -3.138672,-3.3125 0,-1.977998 1.281673,-3.314453 3.138672,-3.314453 z" /><path
         style="fill:#000000;fill-opacity:1;fill-rule:evenodd;stroke:none;stroke-width:1"
         d="m 111.6847,44.012 h 1.613 l -3.764,-4.893 3.66,-3.78 h -1.804 l -4.457,4.631 v -8.968 h -1.301 v 13.01 h 1.301 v -2.221 l 1.699,-1.769 z"
         id="path2040" /><path
         style="fill:#000000;fill-opacity:1;fill-rule:evenodd;stroke:none;stroke-width:1"
         d="m 120.6527,33.829 c 0.503,0 0.919,-0.416 0.919,-0.919 0,-0.503 -0.416,-0.919 -0.919,-0.919 -0.504,0 -0.92,0.416 -0.92,0.919 0,0.503 0.416,0.919 0.92,0.919 z"
         id="path2038" /><path
         style="fill:#000000;fill-opacity:1;fill-rule:evenodd;stroke:none;stroke-width:1"
         d="m 121.2937,35.339 h -1.3 v 8.673 h 1.3 z"
         id="path2036" /><path
         id="path2034"
         style="fill:#000000;fill-opacity:1;fill-rule:evenodd;stroke:none;stroke-width:1"
         d="m 132.75977,35.113281 c -2.619,0 -4.40625,1.855769 -4.40625,4.509766 0,2.757997 1.90776,4.613281 4.50976,4.613281 1.353,0 2.58497,-0.503938 3.41797,-1.335937 L 135.5,41.947266 c -0.711,0.693999 -1.62934,1.076172 -2.65234,1.076172 -1.735,0 -2.93263,-1.111705 -3.14063,-2.845704 h 6.99024 c 0.087,-0.380999 0.12109,-0.865797 0.12109,-1.091796 0,-2.011998 -1.3526,-3.972657 -4.05859,-3.972657 z m -0.0176,1.212891 c 1.752,0 2.68945,1.199673 2.68945,2.638672 v 0.0332 h -5.72461 c 0.243,-1.630998 1.37016,-2.671875 3.03516,-2.671875 z" /><path
         style="fill:#000000;fill-opacity:1;fill-rule:evenodd;stroke:none;stroke-width:1"
         d="m 146.7917,44.254 c 2.168,0 3.677,-0.971 3.677,-2.723 0,-1.839 -1.63,-2.169 -3.573,-2.532 -1.7,-0.313 -2.116,-0.556 -2.116,-1.249 0,-0.902 0.781,-1.388 2.203,-1.388 1.093,0 2.012,0.295 2.671,0.711 l 0.624,-1.058 c -0.798,-0.537 -1.994,-0.902 -3.26,-0.902 -1.648,0 -3.591,0.607 -3.591,2.671 0,1.596 1.145,2.047 3.279,2.446 1.3,0.243 2.411,0.433 2.411,1.371 0,1.057 -1.163,1.387 -2.307,1.387 -1.163,0 -2.498,-0.399 -3.105,-0.884 l -0.625,1.057 c 0.85,0.659 2.446,1.093 3.712,1.093 z"
         id="Fill-90" /></g></g></svg>
