<svg width="204" height="46" viewBox="0 0 204 46" fill="none" xmlns="http://www.w3.org/2000/svg">
  <path d="M34.0368 45.5H14.6124C13.8619 45.5 13.1997 44.9727 13.0232 44.2256L11.6546 37.9853C8.69682 37.6777 5.9156 36.4033 3.79658 34.25C1.32439 31.7891 0 28.5811 0 25.1094C0 21.6377 1.36853 18.3857 3.79658 15.9688C6.22463 13.5518 9.49145 12.1895 12.979 12.1895C16.4666 12.1895 19.7334 13.5518 22.1614 15.9688C24.5453 18.3418 25.8697 21.418 25.958 24.7139C26.0022 24.8457 26.0022 24.9775 26.0022 25.1094C26.0022 30.4707 30.3727 34.8213 35.7585 34.8213C41.1443 34.8213 45.5148 30.4707 45.5148 25.1094C45.5148 19.748 41.1443 15.3975 35.8026 15.3975C34.9197 15.3975 34.1692 14.6943 34.1692 13.7715V13.4199C34.1692 8.05859 29.7987 3.70801 24.4129 3.70801C20.5722 3.70801 17.0405 5.99316 15.4953 9.50879C15.1422 10.3438 14.171 10.6953 13.3763 10.3438C12.5375 9.99219 12.1844 9.02539 12.5375 8.23437C14.6124 3.53223 19.2478 0.5 24.4129 0.5C27.9005 0.5 31.1673 1.86231 33.5953 4.2793C35.7585 6.43262 37.0829 9.24512 37.3478 12.2334C40.2173 12.585 42.9102 13.8594 44.9851 15.9248C47.4573 18.3857 48.7817 21.5938 48.7817 25.0654C48.7817 28.5371 47.4131 31.7891 44.9851 34.2061C42.5129 36.667 39.2902 37.9853 35.8026 37.9853C32.3151 37.9853 29.0483 36.6231 26.6202 34.2061C24.2363 31.833 22.9119 28.7568 22.8236 25.4609C22.7795 25.3291 22.7795 25.1973 22.7795 25.0654C22.7795 19.7041 18.409 15.3535 13.0232 15.3535C7.63731 15.3535 3.26683 19.7041 3.26683 25.0654C3.26683 30.4268 7.63731 34.7773 13.0232 34.7773C13.7736 34.7773 14.4358 35.3047 14.6124 36.0518L15.9368 42.2041H32.8448L33.1097 41.1934C33.3746 40.3584 34.2575 39.8311 35.0963 40.0947C35.9351 40.3584 36.4648 41.2373 36.2 42.0723L35.5819 44.2256C35.4053 45.0166 34.7431 45.5 34.0368 45.5Z" fill="#33FDFE"/>
  <path d="M77.1676 18.21C78.0947 18.6934 78.801 19.3965 79.3308 20.3633C79.8605 21.2861 80.1254 22.4287 80.1254 23.791V32.4482H77.0793V24.1865C77.0793 22.8682 76.7703 21.8574 76.1081 21.1543C75.4459 20.4512 74.563 20.0996 73.4152 20.0996C72.2674 20.0996 71.3845 20.4512 70.6781 21.1543C70.0159 21.8574 69.6627 22.8682 69.6627 24.1865V32.4043H66.6608V24.1865C66.6608 22.8682 66.3518 21.8574 65.6896 21.1543C65.0274 20.4512 64.1445 20.0996 62.9966 20.0996C61.8488 20.0996 60.9659 20.4512 60.2596 21.1543C59.5974 21.8574 59.2442 22.8682 59.2442 24.1865V32.4043H56.1981V17.7266H59.2442V19.3965C59.7298 18.7813 60.392 18.3418 61.1425 17.9902C61.893 17.6387 62.7318 17.4629 63.6147 17.4629C64.8067 17.4629 65.8662 17.7266 66.7932 18.21C67.7203 18.6934 68.4266 19.4404 68.9564 20.3633C69.3979 19.4844 70.1042 18.7813 71.0313 18.2539C71.9583 17.7266 73.0179 17.4629 74.0774 17.4629C75.2252 17.4629 76.2847 17.7266 77.1676 18.21Z" fill="white"/>
  <path d="M97.3426 17.7266L88.2926 39.3477H85.1141L88.116 32.1846L82.2887 17.7266H85.688L89.8377 28.9326L94.1641 17.7266H97.3426Z" fill="white"/>
  <path d="M152.349 21.0664C152.967 19.9238 153.806 19.0449 154.865 18.4297C155.925 17.8145 157.117 17.4629 158.397 17.4629C159.545 17.4629 160.56 17.6826 161.443 18.1221C162.326 18.5615 162.988 19.1328 163.518 19.8359V17.6826H166.608V32.4043H163.518V30.207C162.988 30.9102 162.282 31.4814 161.399 31.9209C160.516 32.4043 159.501 32.624 158.353 32.624C157.072 32.624 155.925 32.3164 154.865 31.6572C153.806 30.998 152.967 30.1191 152.349 28.9326C151.731 27.7461 151.422 26.4277 151.422 24.9775C151.422 23.5273 151.731 22.209 152.349 21.0664ZM162.9 22.4287C162.458 21.6816 161.929 21.1104 161.266 20.7148C160.604 20.3193 159.854 20.1436 159.059 20.1436C158.264 20.1436 157.558 20.3193 156.852 20.7148C156.19 21.1104 155.616 21.6377 155.218 22.3848C154.777 23.1318 154.6 24.0107 154.6 25.0215C154.6 26.0322 154.821 26.9111 155.218 27.7021C155.66 28.4492 156.19 29.0645 156.896 29.46C157.602 29.8555 158.309 30.0752 159.103 30.0752C159.898 30.0752 160.604 29.8994 161.311 29.5039C161.973 29.1084 162.547 28.5371 162.944 27.79C163.385 27.043 163.562 26.1641 163.562 25.1533C163.562 24.1426 163.297 23.1758 162.9 22.4287Z" fill="white"/>
  <path d="M175.79 18.166C176.673 17.6826 177.689 17.4629 178.837 17.4629C180.117 17.4629 181.309 17.7705 182.368 18.4297C183.428 19.0449 184.267 19.9678 184.885 21.0664C185.503 22.209 185.812 23.5273 185.812 24.9775C185.812 26.4717 185.503 27.79 184.885 28.9326C184.267 30.1191 183.428 30.998 182.368 31.6572C181.309 32.3164 180.117 32.624 178.837 32.624C177.689 32.624 176.718 32.4043 175.835 31.9648C174.952 31.5254 174.245 30.9541 173.671 30.251V39.3916H170.625V17.7266H173.671V19.8799C174.201 19.2207 174.908 18.6494 175.79 18.166ZM182.015 22.3848C181.574 21.6377 181.044 21.0664 180.338 20.7148C179.631 20.3193 178.925 20.1436 178.13 20.1436C177.38 20.1436 176.629 20.3193 175.923 20.7148C175.217 21.1104 174.687 21.6816 174.245 22.4287C173.804 23.1758 173.627 24.0547 173.627 25.0654C173.627 26.0762 173.848 26.9551 174.245 27.7021C174.687 28.4492 175.217 29.0205 175.923 29.416C176.629 29.8115 177.336 29.9873 178.13 29.9873C178.925 29.9873 179.675 29.7676 180.338 29.3721C181.044 28.9766 181.574 28.4053 182.015 27.6143C182.457 26.8672 182.633 25.9443 182.633 24.9336C182.677 24.0107 182.457 23.1318 182.015 22.3848Z" fill="white"/>
  <path d="M193.979 18.166C194.862 17.6826 195.877 17.4629 197.025 17.4629C198.305 17.4629 199.497 17.7705 200.557 18.4297C201.616 19.0449 202.455 19.9678 203.073 21.0664C203.691 22.209 204 23.5273 204 24.9775C204 26.4717 203.691 27.79 203.073 28.9326C202.455 30.1191 201.616 30.998 200.557 31.6572C199.497 32.3164 198.305 32.624 197.025 32.624C195.877 32.624 194.906 32.4043 194.023 31.9648C193.14 31.5254 192.434 30.9541 191.86 30.251V39.3916H188.814V17.7266H191.86V19.8799C192.39 19.2207 193.096 18.6494 193.979 18.166ZM200.203 22.3848C199.762 21.6377 199.232 21.0664 198.526 20.7148C197.82 20.3193 197.113 20.1436 196.319 20.1436C195.568 20.1436 194.818 20.3193 194.111 20.7148C193.405 21.1104 192.875 21.6816 192.434 22.4287C191.992 23.1758 191.816 24.0547 191.816 25.0654C191.816 26.0762 192.036 26.9551 192.434 27.7021C192.875 28.4492 193.405 29.0205 194.111 29.416C194.818 29.8115 195.524 29.9873 196.319 29.9873C197.113 29.9873 197.864 29.7676 198.526 29.3721C199.232 28.9766 199.762 28.4053 200.203 27.6143C200.645 26.8672 200.821 25.9443 200.821 24.9336C200.866 24.0107 200.645 23.1318 200.203 22.3848Z" fill="white"/>
  <path d="M106.216 20.1875H103.479V32.4043H100.389V20.1875H98.6669V17.7266H100.389V16.6719C100.389 15.002 100.83 13.7275 101.757 12.9805C102.64 12.1895 104.097 11.8379 105.995 11.8379V14.3867C105.068 14.3867 104.406 14.5625 104.053 14.9141C103.7 15.2656 103.479 15.8809 103.479 16.7158V17.7705H106.216V20.1875Z" fill="#33FDFE"/>
  <path d="M113.765 18.1221C114.515 17.6826 115.398 17.5068 116.414 17.5068V20.6709H115.619C114.427 20.6709 113.5 20.9785 112.882 21.5937C112.264 22.209 111.955 23.2637 111.955 24.7578V32.4922H108.909V17.7266H111.955V19.8799C112.396 19.0889 113.014 18.5176 113.765 18.1221Z" fill="#33FDFE"/>
  <path d="M132.615 26.208H121.314C121.402 27.3945 121.844 28.3174 122.638 29.0205C123.433 29.7236 124.404 30.0752 125.552 30.0752C127.185 30.0752 128.377 29.3721 129.04 28.0098H132.35C131.909 29.3721 131.114 30.4707 129.922 31.3496C128.73 32.2285 127.318 32.624 125.552 32.624C124.139 32.624 122.859 32.3164 121.755 31.6572C120.652 31.042 119.769 30.1191 119.107 28.9766C118.489 27.834 118.135 26.5156 118.135 24.9775C118.135 23.4834 118.444 22.1211 119.062 20.9785C119.68 19.8359 120.563 18.957 121.667 18.3418C122.771 17.7266 124.051 17.4189 125.508 17.4189C126.92 17.4189 128.157 17.7266 129.216 18.3418C130.32 18.957 131.159 19.792 131.777 20.8906C132.395 21.9893 132.704 23.2637 132.704 24.6699C132.748 25.2412 132.704 25.7686 132.615 26.208ZM129.569 23.7471C129.569 22.6045 129.128 21.7256 128.377 21.0664C127.583 20.4072 126.611 20.0557 125.464 20.0557C124.404 20.0557 123.521 20.4072 122.771 21.0664C122.02 21.7256 121.579 22.6484 121.446 23.791H129.569V23.7471Z" fill="#33FDFE"/>
  <path d="M149.17 26.208H137.869C137.957 27.3945 138.399 28.3174 139.193 29.0205C139.988 29.7236 140.959 30.0752 142.107 30.0752C143.74 30.0752 144.932 29.3721 145.594 28.0098H148.905C148.464 29.3721 147.669 30.4707 146.477 31.3496C145.285 32.2285 143.873 32.624 142.107 32.624C140.694 32.624 139.414 32.3164 138.31 31.6572C137.207 31.042 136.324 30.1191 135.662 28.9766C135.043 27.834 134.69 26.5156 134.69 24.9775C134.69 23.4834 134.999 22.1211 135.617 20.9785C136.235 19.8359 137.118 18.957 138.222 18.3418C139.326 17.7266 140.606 17.4189 142.063 17.4189C143.475 17.4189 144.712 17.7266 145.771 18.3418C146.875 18.957 147.713 19.792 148.332 20.8906C148.95 21.9893 149.259 23.2637 149.259 24.6699C149.303 25.2412 149.259 25.7686 149.17 26.208ZM146.08 23.7471C146.08 22.6045 145.639 21.7256 144.888 21.0664C144.093 20.4072 143.122 20.0557 141.974 20.0557C140.915 20.0557 140.032 20.4072 139.282 21.0664C138.531 21.7256 138.09 22.6484 137.957 23.791H146.08V23.7471Z" fill="#33FDFE"/>
</svg>
